<svg width="412" height="251" viewBox="0 0 412 251" fill="none" xmlns="http://www.w3.org/2000/svg">
<g clip-path="url(#clip0_10_127)">
<path d="M211.342 202.975L67.6621 239.985C62.7884 241.234 57.6181 240.499 53.2856 237.94C48.9532 235.381 45.8123 231.208 44.5521 226.336L1.10198 57.5482C-0.147153 52.673 0.587959 47.5013 3.14604 43.1677C5.70413 38.834 9.87628 35.6922 14.7472 34.4316L148.418 0.000549316L182.629 15.3205L224.987 179.858C226.237 184.733 225.502 189.905 222.943 194.239C220.385 198.573 216.213 201.715 211.342 202.975Z" fill="#F2F2F2"/>
<path d="M16.107 39.7236C12.6383 40.6213 9.66718 42.8585 7.84547 45.9446C6.02376 49.0307 5.50024 52.7135 6.38973 56.1852L49.8425 224.973C50.7399 228.443 52.9766 231.415 56.0618 233.237C59.147 235.059 62.8288 235.583 66.2996 234.693L209.98 197.684C213.448 196.787 216.419 194.55 218.241 191.463C220.063 188.377 220.586 184.694 219.697 181.223L177.994 19.233L147.927 5.76898L16.107 39.7236Z" fill="white"/>
<path d="M182.264 16.1927L160.027 21.9205C158.404 22.3385 156.681 22.0945 155.238 21.2419C153.794 20.3894 152.749 18.9982 152.331 17.3745L148.101 0.946307C148.083 0.874423 148.085 0.798808 148.108 0.728114C148.13 0.65742 148.172 0.594502 148.229 0.546564C148.285 0.498627 148.354 0.467611 148.428 0.457054C148.501 0.446498 148.576 0.456827 148.644 0.486872L182.326 15.4489C182.401 15.4822 182.463 15.5381 182.505 15.6087C182.547 15.6792 182.566 15.7611 182.559 15.8428C182.552 15.9245 182.52 16.0021 182.467 16.0648C182.414 16.1275 182.343 16.1722 182.264 16.1927Z" fill="#F2F2F2"/>
<path d="M170.566 160.332L105.15 177.183C104.34 177.387 103.483 177.262 102.765 176.835C102.047 176.408 101.527 175.715 101.319 174.906C101.111 174.097 101.231 173.239 101.654 172.518C102.076 171.798 102.767 171.274 103.574 171.061L168.99 154.21C169.392 154.103 169.812 154.078 170.225 154.135C170.637 154.191 171.035 154.329 171.394 154.54C171.753 154.751 172.067 155.03 172.318 155.363C172.569 155.696 172.751 156.075 172.855 156.478C172.959 156.882 172.982 157.302 172.923 157.714C172.864 158.127 172.724 158.523 172.512 158.881C172.299 159.24 172.017 159.552 171.683 159.801C171.349 160.05 170.969 160.23 170.566 160.332Z" fill="#CCCCCC"/>
<path d="M185.849 167.412L107.809 187.514C107.407 187.62 106.987 187.645 106.574 187.589C106.161 187.532 105.764 187.394 105.405 187.184C105.046 186.973 104.732 186.693 104.481 186.36C104.23 186.028 104.047 185.649 103.944 185.245C103.84 184.842 103.817 184.422 103.876 184.009C103.935 183.597 104.074 183.2 104.287 182.842C104.5 182.484 104.782 182.171 105.115 181.922C105.449 181.673 105.829 181.493 106.233 181.391L184.273 161.289C185.083 161.086 185.94 161.211 186.658 161.638C187.376 162.064 187.896 162.758 188.104 163.567C188.312 164.376 188.192 165.234 187.769 165.955C187.347 166.675 186.656 167.199 185.849 167.412Z" fill="#CCCCCC"/>
<path d="M78.4511 197.476C84.6201 197.476 89.621 192.474 89.621 186.303C89.621 180.133 84.6201 175.13 78.4511 175.13C72.2822 175.13 67.2813 180.133 67.2813 186.303C67.2813 192.474 72.2822 197.476 78.4511 197.476Z" fill="white"/>
<path d="M163.61 131.093L76.7308 153.463C74.22 154.106 71.5565 153.727 69.3247 152.409C67.0929 151.09 65.4751 148.94 64.8262 146.43L46.6203 75.6823C45.9776 73.1711 46.3568 70.5074 47.6748 68.2755C48.9928 66.0436 51.142 64.4257 53.6509 63.7766L140.529 41.4066C143.04 40.763 145.703 41.142 147.935 42.4605C150.167 43.7789 151.785 45.929 152.434 48.4391L170.64 119.187C171.283 121.698 170.904 124.362 169.586 126.594C168.268 128.826 166.118 130.443 163.61 131.093Z" fill="white"/>
<path d="M163.61 131.093L76.7308 153.463C74.22 154.106 71.5565 153.727 69.3247 152.409C67.0929 151.09 65.4751 148.94 64.8262 146.43L46.6203 75.6823C45.9776 73.1711 46.3568 70.5074 47.6748 68.2755C48.9928 66.0436 51.142 64.4257 53.6509 63.7766L140.529 41.4066C143.04 40.763 145.703 41.142 147.935 42.4605C150.167 43.7789 151.785 45.929 152.434 48.4391L170.64 119.187C171.283 121.698 170.904 124.362 169.586 126.594C168.268 128.826 166.118 130.443 163.61 131.093ZM53.9373 64.8887C51.7236 65.462 49.8276 66.8901 48.6651 68.8598C47.5027 70.8296 47.1687 73.1801 47.7365 75.3958L65.9429 146.143C66.516 148.358 67.9438 150.254 69.9129 151.417C71.8821 152.58 74.232 152.914 76.4471 152.346L163.324 129.978C165.537 129.405 167.433 127.977 168.596 126.007C169.758 124.037 170.092 121.687 169.525 119.471L151.32 48.7235C150.747 46.5091 149.319 44.6126 147.35 43.4498C145.38 42.287 143.031 41.9529 140.816 42.5208L53.9373 64.8887Z" fill="#E6E6E6"/>
<path d="M136.122 65.1928L92.2764 76.4826C91.8931 76.5896 91.4835 76.5472 91.1304 76.3638C90.7772 76.1804 90.5068 75.8697 90.3738 75.4946C90.312 75.2985 90.2907 75.0919 90.3113 74.8873C90.3319 74.6828 90.3939 74.4846 90.4936 74.3048C90.5934 74.125 90.7287 73.9674 90.8913 73.8417C91.0539 73.7159 91.2404 73.6247 91.4395 73.5734L136.072 62.081C137.875 62.9949 137.401 64.864 136.122 65.1933L136.122 65.1928Z" fill="#F2F2F2"/>
<path d="M138.1 72.8835L94.2546 84.1733C93.8714 84.2803 93.4618 84.2379 93.1086 84.0545C92.7555 83.8711 92.4851 83.5604 92.3521 83.1853C92.2902 82.9892 92.2689 82.7826 92.2895 82.578C92.3101 82.3735 92.3722 82.1753 92.4719 81.9955C92.5716 81.8157 92.7069 81.6581 92.8696 81.5324C93.0322 81.4066 93.2187 81.3154 93.4178 81.2641L138.05 69.7717C139.854 70.6857 139.379 72.5547 138.1 72.884L138.1 72.8835Z" fill="#F2F2F2"/>
<path d="M85.9037 90.9962L72.5224 94.4406C72.306 94.4963 72.0807 94.5089 71.8595 94.4776C71.6382 94.4463 71.4252 94.3716 71.2328 94.258C71.0404 94.1443 70.8723 93.9938 70.738 93.8151C70.6037 93.6364 70.506 93.433 70.4503 93.2165L66.3852 77.4245C66.3294 77.2081 66.3168 76.9827 66.3482 76.7614C66.3795 76.5401 66.4541 76.3271 66.5677 76.1346C66.6814 75.9421 66.8318 75.7739 67.0105 75.6396C67.1891 75.5053 67.3925 75.4075 67.6089 75.3519L80.9902 71.9064C81.4272 71.7945 81.8908 71.8605 82.2792 72.09C82.6676 72.3194 82.9492 72.6936 83.0623 73.1305L87.1274 88.9263C87.1832 89.1427 87.1958 89.3681 87.1644 89.5894C87.1331 89.8107 87.0585 90.0237 86.9449 90.2162C86.8312 90.4087 86.6808 90.5769 86.5021 90.7112C86.3235 90.8455 86.1201 90.9433 85.9037 90.9989V90.9962Z" fill="white"/>
<path d="M142.027 88.6705L75.1098 105.901C74.7265 106.008 74.317 105.965 73.9638 105.782C73.6107 105.598 73.3403 105.288 73.2073 104.913C73.1454 104.716 73.1241 104.51 73.1447 104.305C73.1653 104.101 73.2274 103.903 73.3271 103.723C73.4268 103.543 73.5621 103.385 73.7247 103.26C73.8874 103.134 74.0739 103.043 74.273 102.991L141.978 85.5582C143.781 86.4721 143.306 88.3411 142.027 88.6705Z" fill="#F2F2F2"/>
<path d="M144.009 96.365L77.0903 113.596C76.707 113.703 76.2974 113.66 75.9443 113.477C75.5911 113.293 75.3207 112.983 75.1877 112.608C75.1259 112.412 75.1046 112.205 75.1252 112C75.1458 111.796 75.2078 111.598 75.3076 111.418C75.4073 111.238 75.5426 111.08 75.7052 110.955C75.8678 110.829 76.0544 110.738 76.2534 110.686L143.958 93.2533C145.761 94.1672 145.287 96.0362 144.008 96.3656L144.009 96.365Z" fill="#F2F2F2"/>
<path d="M145.986 104.056L79.069 121.286C78.6858 121.393 78.2762 121.351 77.923 121.167C77.5699 120.984 77.2995 120.673 77.1665 120.298C77.1046 120.102 77.0833 119.896 77.1039 119.691C77.1245 119.487 77.1866 119.288 77.2863 119.109C77.386 118.929 77.5213 118.771 77.684 118.645C77.8466 118.52 78.0331 118.428 78.2322 118.377L145.936 100.944C147.74 101.858 147.265 103.727 145.986 104.056Z" fill="#F2F2F2"/>
<path d="M147.967 111.751L81.0495 128.981C80.6662 129.088 80.2567 129.045 79.9035 128.862C79.5504 128.679 79.28 128.368 79.147 127.993C79.0851 127.797 79.0638 127.59 79.0844 127.386C79.105 127.181 79.1671 126.983 79.2668 126.803C79.3665 126.623 79.5018 126.466 79.6644 126.34C79.8271 126.214 80.0136 126.123 80.2126 126.072L147.917 108.638C149.72 109.552 149.246 111.421 147.967 111.751Z" fill="#F2F2F2"/>
<path d="M149.946 119.441L83.0288 136.672C82.6455 136.779 82.2359 136.736 81.8828 136.553C81.5296 136.369 81.2593 136.059 81.1263 135.684C81.0644 135.487 81.0431 135.281 81.0637 135.076C81.0843 134.872 81.1464 134.674 81.2461 134.494C81.3458 134.314 81.4811 134.156 81.6437 134.031C81.8063 133.905 81.9929 133.814 82.1919 133.762L149.897 116.329C151.699 117.243 151.225 119.112 149.946 119.441Z" fill="#F2F2F2"/>
<path d="M79.2754 190.22C79.0322 190.283 78.7751 190.265 78.5428 190.169L78.5285 190.163L75.4857 188.873C75.3447 188.813 75.2169 188.726 75.1096 188.616C75.0023 188.507 74.9175 188.378 74.8602 188.235C74.8029 188.093 74.7742 187.941 74.7756 187.788C74.7771 187.635 74.8087 187.483 74.8686 187.342C74.9286 187.201 75.0157 187.073 75.1251 186.966C75.2344 186.859 75.3638 186.774 75.5059 186.717C75.648 186.659 75.8 186.631 75.9532 186.632C76.1064 186.633 76.2578 186.665 76.3988 186.725L78.3705 187.564L80.954 181.484C81.075 181.199 81.3041 180.974 81.5909 180.859C81.8778 180.743 82.1988 180.746 82.4834 180.867L82.468 180.907L82.4839 180.867C82.7684 180.988 82.9932 181.217 83.1089 181.504C83.2245 181.791 83.2216 182.112 83.1007 182.397L80.0612 189.545C79.9907 189.71 79.8832 189.856 79.747 189.973C79.6108 190.089 79.4496 190.173 79.2759 190.217L79.2754 190.22Z" fill="white"/>
<path d="M352.385 247.379L206.741 219.059C201.803 218.093 197.449 215.207 194.635 211.035C191.822 206.862 190.778 201.743 191.733 196.802L224.978 25.7122C225.944 20.773 228.828 16.4187 233 13.6045C237.171 10.7903 242.288 9.74601 247.228 10.7008L382.726 37.0478L407.043 65.584L374.635 232.366C373.67 237.306 370.785 241.661 366.614 244.475C362.442 247.29 357.325 248.334 352.385 247.379Z" fill="#E6E6E6"/>
<path d="M246.186 16.0652C242.668 15.3853 239.024 16.129 236.053 18.133C233.083 20.137 231.029 23.2378 230.341 26.755L197.096 197.845C196.416 201.363 197.16 205.008 199.164 207.979C201.167 210.951 204.267 213.006 207.784 213.693L353.427 242.013C356.945 242.693 360.589 241.95 363.559 239.945C366.53 237.941 368.584 234.841 369.272 231.323L401.178 67.1259L379.808 42.0475L246.186 16.0652Z" fill="white"/>
<path d="M353.835 88.6235L287.526 75.7305C286.703 75.5705 285.978 75.0902 285.509 74.3952C285.04 73.7001 284.867 72.8474 285.027 72.0244C285.187 71.2015 285.667 70.4758 286.362 70.007C287.057 69.5383 287.909 69.3648 288.732 69.5248L355.042 82.4181C355.865 82.5781 356.591 83.0584 357.059 83.7534C357.528 84.4484 357.701 85.3012 357.541 86.1241C357.382 86.9471 356.901 87.6728 356.207 88.1415C355.512 88.6103 354.659 88.7838 353.836 88.6238L353.835 88.6235Z" fill="white"/>
<path d="M364.596 101.585L285.491 86.2035C284.668 86.0435 283.943 85.5632 283.474 84.8682C283.005 84.1732 282.832 83.3204 282.992 82.4975C283.152 81.6745 283.632 80.9488 284.327 80.4801C285.022 80.0113 285.874 79.8378 286.697 79.9978L365.802 95.3789C366.625 95.5389 367.35 96.0192 367.819 96.7142C368.288 97.4093 368.461 98.262 368.301 99.085C368.141 99.9079 367.661 100.634 366.966 101.102C366.271 101.571 365.419 101.745 364.596 101.585Z" fill="white"/>
<path d="M345.921 129.35L279.614 116.457C278.791 116.297 277.939 116.47 277.244 116.939C276.549 117.408 276.069 118.133 275.909 118.956C275.749 119.779 275.923 120.632 276.392 121.327C276.86 122.022 277.586 122.502 278.408 122.662L344.715 135.555C345.533 135.703 346.376 135.522 347.062 135.053C347.748 134.584 348.221 133.863 348.38 133.047C348.538 132.232 348.369 131.386 347.909 130.694C347.449 130.002 346.735 129.519 345.921 129.35Z" fill="#CCCCCC"/>
<path d="M356.683 142.312L277.579 126.931C277.169 126.846 276.746 126.843 276.336 126.922C275.925 127.001 275.534 127.162 275.185 127.393C274.837 127.625 274.538 127.924 274.305 128.272C274.073 128.621 273.913 129.011 273.833 129.422C273.753 129.833 273.755 130.256 273.84 130.666C273.925 131.076 274.09 131.465 274.327 131.81C274.563 132.156 274.866 132.451 275.217 132.679C275.568 132.906 275.961 133.062 276.373 133.136L355.477 148.517C355.886 148.602 356.309 148.605 356.72 148.526C357.131 148.446 357.522 148.286 357.87 148.054C358.219 147.823 358.518 147.524 358.75 147.176C358.982 146.827 359.143 146.436 359.223 146.026C359.302 145.615 359.3 145.192 359.215 144.782C359.13 144.372 358.965 143.983 358.729 143.638C358.492 143.292 358.19 142.997 357.838 142.769C357.487 142.542 357.095 142.386 356.683 142.312Z" fill="#CCCCCC"/>
<path d="M335.594 182.49L269.285 169.597C268.463 169.437 267.737 168.957 267.268 168.262C266.8 167.567 266.626 166.714 266.786 165.891C266.946 165.068 267.426 164.342 268.121 163.874C268.816 163.405 269.669 163.231 270.491 163.391L336.801 176.285C337.624 176.445 338.35 176.925 338.818 177.62C339.287 178.315 339.461 179.168 339.301 179.991C339.141 180.814 338.661 181.539 337.966 182.008C337.271 182.477 336.418 182.65 335.596 182.49L335.594 182.49Z" fill="#CCCCCC"/>
<path d="M346.355 195.451L267.25 180.07C266.428 179.91 265.702 179.429 265.233 178.734C264.765 178.039 264.591 177.186 264.751 176.364C264.911 175.541 265.391 174.815 266.086 174.346C266.781 173.877 267.633 173.704 268.456 173.864L347.561 189.245C348.384 189.405 349.11 189.885 349.578 190.58C350.047 191.275 350.221 192.128 350.061 192.951C349.901 193.774 349.421 194.5 348.726 194.968C348.031 195.437 347.178 195.611 346.355 195.451Z" fill="#CCCCCC"/>
<path d="M257.368 83.4632C263.423 84.6407 269.287 80.685 270.464 74.6278C271.641 68.5706 267.686 62.7057 261.63 61.5282C255.574 60.3507 249.711 64.3065 248.534 70.3637C247.357 76.4209 251.312 82.2857 257.368 83.4632Z" fill="white"/>
<path d="M257.6 76.4679C257.353 76.4204 257.129 76.2939 256.96 76.1075L256.949 76.0959L254.756 73.6228C254.555 73.3904 254.454 73.0884 254.475 72.7823C254.496 72.4761 254.636 72.1903 254.866 71.9869C255.095 71.7835 255.396 71.6788 255.702 71.6954C256.009 71.7121 256.296 71.8487 256.502 72.0758L257.923 73.6807L262.867 69.3007C262.981 69.1992 263.115 69.1212 263.26 69.0713C263.405 69.0213 263.558 69.0004 263.711 69.0098C263.864 69.0191 264.013 69.0584 264.151 69.1256C264.288 69.1927 264.412 69.2864 264.513 69.4011L264.482 69.4293L264.514 69.4002C264.719 69.632 264.824 69.9357 264.805 70.2444C264.786 70.5532 264.645 70.8419 264.414 71.0471L258.598 76.1967C258.464 76.3153 258.304 76.4013 258.131 76.448C257.958 76.4948 257.776 76.501 257.6 76.4663L257.6 76.4679Z" fill="white"/>
<path d="M262.47 121.779C262.191 123.219 261.631 124.59 260.821 125.814C260.012 127.038 258.97 128.091 257.754 128.912C256.538 129.732 255.172 130.306 253.735 130.598C252.297 130.891 250.816 130.898 249.376 130.618C249.281 130.602 249.188 130.58 249.096 130.552C246.951 130.077 244.993 128.981 243.468 127.399C241.943 125.817 240.918 123.821 240.522 121.659C240.125 119.498 240.375 117.267 241.24 115.247C242.104 113.227 243.545 111.507 245.382 110.302C247.219 109.097 249.371 108.46 251.568 108.472C253.764 108.484 255.909 109.144 257.733 110.369C259.557 111.594 260.979 113.33 261.822 115.359C262.665 117.389 262.89 119.622 262.47 121.779Z" fill="white"/>
<path d="M239.127 177.329C245.183 178.507 251.046 174.551 252.223 168.494C253.4 162.437 249.445 156.572 243.389 155.394C237.334 154.217 231.47 158.173 230.293 164.23C229.116 170.287 233.071 176.152 239.127 177.329Z" fill="white"/>
<path d="M406.339 66.2114L383.799 61.8286C382.153 61.5086 380.702 60.5479 379.765 59.1578C378.828 57.7677 378.481 56.0621 378.8 54.4161L382.036 37.7642C382.05 37.6913 382.085 37.6239 382.136 37.5697C382.186 37.5155 382.251 37.4767 382.323 37.4578C382.395 37.4388 382.47 37.4405 382.541 37.4625C382.612 37.4846 382.675 37.5262 382.724 37.5826L406.715 65.5648C406.768 65.6271 406.801 65.7044 406.808 65.7861C406.816 65.8678 406.797 65.9497 406.756 66.0206C406.715 66.0915 406.653 66.1478 406.578 66.1817C406.503 66.2156 406.42 66.2254 406.34 66.2098L406.339 66.2114Z" fill="#CCCCCC"/>
<path d="M272.732 232.709C272.038 233.848 270.921 234.663 269.626 234.977C268.33 235.291 266.963 235.078 265.825 234.384L207.19 198.608C206.052 197.914 205.236 196.796 204.922 195.5C204.609 194.204 204.822 192.837 205.516 191.699C206.21 190.561 207.328 189.745 208.623 189.431C209.919 189.117 211.286 189.331 212.424 190.025L271.059 225.8C272.197 226.495 273.012 227.613 273.326 228.908C273.64 230.204 273.427 231.571 272.732 232.709Z" fill="#133524"/>
<path d="M214.097 196.937C209.956 203.727 203.896 209.137 196.682 212.482C189.467 215.827 181.423 216.957 173.567 215.729C165.711 214.502 158.395 210.971 152.545 205.584C146.694 200.197 142.572 193.196 140.7 185.466C138.827 177.736 139.288 169.624 142.025 162.156C144.761 154.688 149.65 148.2 156.073 143.511C162.496 138.822 170.165 136.144 178.11 135.815C186.055 135.486 193.919 137.521 200.707 141.662C205.215 144.412 209.137 148.023 212.249 152.289C215.362 156.555 217.604 161.393 218.847 166.526C220.09 171.658 220.311 176.986 219.496 182.204C218.681 187.422 216.846 192.428 214.097 196.937ZM154.032 160.287C150.926 165.379 149.401 171.279 149.647 177.239C149.894 183.2 151.902 188.953 155.418 193.772C158.933 198.59 163.798 202.258 169.398 204.311C174.997 206.364 181.08 206.71 186.876 205.305C192.672 203.9 197.921 200.808 201.96 196.419C205.999 192.03 208.646 186.541 209.567 180.647C210.487 174.753 209.64 168.719 207.132 163.307C204.623 157.894 200.567 153.348 195.476 150.242C188.648 146.076 180.446 144.795 172.674 146.678C164.902 148.562 158.196 153.457 154.032 160.287Z" fill="#133524"/>
<path d="M169.143 205.161C185.478 210.787 203.281 202.102 208.905 185.762C214.53 169.422 205.847 151.614 189.512 145.988C173.176 140.362 155.374 149.047 149.749 165.387C144.124 181.727 152.807 199.535 169.143 205.161Z" fill="white"/>
</g>
<defs>
<clipPath id="clip0_10_127">
<rect width="411" height="251" fill="white" transform="translate(0.5)"/>
</clipPath>
</defs>
</svg>
