<svg width="372" height="283" viewBox="0 0 372 283" fill="none" xmlns="http://www.w3.org/2000/svg">
<g clip-path="url(#clip0_13_298)">
<path d="M344.187 257.232C331.998 266.525 317.149 275.938 302.55 280.377C298.341 281.695 293.999 282.536 289.603 282.885C285.493 283.216 281.357 282.894 277.347 281.933C266.811 279.309 257.038 274.714 247.582 269.345C244.492 267.589 241.439 265.751 238.403 263.874C233.447 260.808 228.54 257.634 223.62 254.536C222.884 254.067 222.152 253.606 221.415 253.15H221.41C220.223 252.404 219.032 251.668 217.839 250.942C217.629 250.813 217.419 250.687 217.205 250.558C214.95 249.19 212.657 247.853 210.325 246.548C210.039 246.392 209.753 246.231 209.468 246.074C204.956 243.569 200.318 241.296 195.574 239.267C192.458 237.952 189.301 236.768 186.113 235.758H186.109C184.89 235.373 183.667 235.011 182.439 234.68C178.757 233.669 175.006 232.934 171.215 232.481C165.991 231.848 160.708 231.89 155.495 232.606C155.142 232.656 154.794 232.705 154.442 232.763C140.333 235.025 127.457 242.65 113.287 244.447C112.827 244.505 112.372 244.559 111.912 244.599C111.715 244.617 111.519 244.64 111.322 244.653C107.204 245.006 103.06 244.904 98.9645 244.349C87.5217 242.838 76.3781 238.149 66.3461 232.24C42.8936 218.423 23.8744 197.186 12.3111 172.592C10.3255 168.377 8.56248 164.061 7.02952 159.66C2.74347 147.459 0.38313 134.662 0.0334785 121.733C-1.05142 76.8716 24.4102 31.8632 64.3862 11.5739C104.367 -8.71539 156.96 -2.00592 189.203 29.1634C208.762 48.0714 220.08 73.6935 234.8 96.5843C249.52 119.471 270.441 141.333 297.425 144.668C311.171 146.367 325.556 143.081 338.731 147.355C346.026 149.724 352.25 154.256 357.264 160.031C360.634 163.951 363.455 168.312 365.648 172.994C367.255 176.38 368.56 179.901 369.546 183.517C369.729 184.183 369.898 184.849 370.064 185.515C376.627 212.353 366.139 240.487 344.187 257.232Z" fill="#F2F2F2"/>
<path d="M124.636 208.647H82.6686C76.381 208.647 71.2839 213.75 71.2839 220.045V220.045C71.2839 226.341 76.381 231.444 82.6686 231.444H124.636C130.923 231.444 136.021 226.341 136.021 220.045C136.021 213.75 130.923 208.647 124.636 208.647Z" fill="#302D56"/>
<path d="M111.912 225.633V244.599C107.601 245.017 103.256 244.933 98.9644 244.349V225.633H111.912Z" fill="#3F3D56"/>
<path d="M155.495 232.606C155.142 232.655 154.794 232.705 154.441 232.763C140.333 235.024 127.457 242.65 113.287 244.447C112.827 244.505 112.371 244.559 111.912 244.599C111.715 244.617 111.519 244.639 111.322 244.653C107.862 241.26 104.402 237.648 101.152 233.907C99.3884 231.882 97.683 229.817 96.0802 227.725C91.9192 222.325 88.3921 216.773 86.0616 211.32C86.2982 208.705 84.6731 202.657 83.8963 198.026L83.8918 198.022C83.5614 196.077 83.3828 194.388 83.548 193.302C84.4946 187.035 89.6065 187.754 91.178 181.612C92.5957 180.434 94.1051 179.372 95.6917 178.434C95.9552 178.278 96.223 178.121 96.4998 177.965L113.555 166.164L120.073 172.565L129.993 182.31L140.744 192.864L131.618 202.094C131.618 202.094 139.244 210.895 148.16 222.629C150.553 225.781 153.04 229.146 155.495 232.606Z" fill="#454545"/>
<path d="M302.55 225.633V280.377C298.341 281.695 293.998 282.536 289.603 282.885V225.633H302.55Z" fill="#3F3D56"/>
<path d="M319.292 221.163H277.325C271.037 221.163 265.94 226.266 265.94 232.561V232.561C265.94 238.857 271.037 243.96 277.325 243.96H319.292C325.58 243.96 330.677 238.857 330.677 232.561C330.677 226.266 325.58 221.163 319.292 221.163Z" fill="#3F3D56"/>
<path d="M217.205 250.558C214.95 249.19 212.657 247.853 210.325 246.548C210.039 246.392 209.753 246.231 209.468 246.074L211.003 245.417L215.146 243.634L215.187 243.616L215.231 243.768L217.205 250.558Z" fill="#FFB6B6"/>
<path d="M223.62 254.536C222.884 254.067 222.152 253.606 221.415 253.15H221.41C220.223 252.404 219.032 251.668 217.839 250.942C217.629 250.812 217.419 250.687 217.205 250.558C214.95 249.19 212.657 247.853 210.325 246.548C210.039 246.392 209.753 246.231 209.468 246.074C204.956 243.569 200.318 241.296 195.574 239.266C192.457 237.952 189.301 236.768 186.113 235.758H186.109L183.604 231.56L172.331 212.657L169.853 208.504C169.853 208.504 161.402 211.007 149.441 213.408C145.088 214.284 140.275 215.142 135.226 215.866C129.828 216.635 124.167 217.247 118.542 217.542C115.858 217.685 113.184 217.757 110.55 217.735C103.741 217.69 97.2009 217.051 91.4728 215.531C89.5619 213.734 83.8026 211.289 79.6773 209.049H79.6729C77.9406 208.111 76.503 207.212 75.7485 206.412C71.4 201.808 75.1145 198.218 71.2482 193.194C71.1961 191.351 71.2902 189.507 71.5294 187.678C71.5696 187.374 71.6098 187.066 71.6589 186.753L72.8777 166.03L81.9319 164.832L95.7097 163.008L110.635 161.033L112.278 173.915C112.278 173.915 123.899 173.325 138.623 173.522C162.272 173.844 193.917 176.204 198.203 186.333C198.605 187.285 199.007 188.246 199.409 189.207C200.364 191.505 201.311 193.814 202.248 196.135C205.646 204.539 208.887 213.023 211.847 221.042C213.687 226.031 215.419 230.841 217.013 235.342C218.294 238.963 219.482 242.387 220.567 245.538C221.558 248.417 222.455 251.067 223.254 253.445C223.379 253.816 223.5 254.183 223.62 254.536Z" fill="#454545"/>
<path d="M140.331 128.979L111.733 104.662L130.339 85.809L143.32 107.096L191.436 116.647C192.883 115.557 194.616 114.912 196.422 114.791C198.229 114.669 200.032 115.077 201.611 115.963C203.191 116.85 204.478 118.178 205.317 119.785C206.156 121.391 206.51 123.208 206.335 125.012C206.161 126.817 205.466 128.531 204.335 129.947C203.204 131.363 201.686 132.419 199.966 132.986C198.246 133.553 196.398 133.606 194.648 133.14C192.898 132.674 191.322 131.708 190.111 130.361L140.331 128.979Z" fill="#A0616A"/>
<path d="M86.4584 72.7031C83.1534 83.4681 114.63 109.143 114.63 109.143C114.98 106.558 132.826 128.843 134.04 126.825C137.491 121.089 141.287 106.91 145.271 105.098C147.549 104.062 134.48 89.6574 134.48 89.6574C134.48 89.6574 127.813 80.8264 119.011 69.6343C116.581 66.4239 113.379 63.8812 109.704 62.243C106.028 60.6047 101.999 59.9242 97.9897 60.2646C97.9897 60.2646 89.7634 61.9382 86.4584 72.7031Z" fill="#133524"/>
<path d="M100.375 48.8719C111.058 48.8719 119.718 40.2015 119.718 29.5061C119.718 18.8106 111.058 10.1403 100.375 10.1403C89.6929 10.1403 81.033 18.8106 81.033 29.5061C81.033 40.2015 89.6929 48.8719 100.375 48.8719Z" fill="#A0616A"/>
<path d="M110.047 61.6714C114.214 64.1517 116.706 68.709 118.137 73.3464C120.787 81.9321 122.381 90.8089 122.886 99.7807L124.397 126.641L143.116 183.833C126.893 197.576 65.9146 186.956 65.9146 186.956C65.9146 186.956 64.0427 186.332 65.9146 184.458C67.7864 182.584 69.6087 184.244 67.7369 182.37C65.865 180.496 67.1554 182.584 67.7793 180.709C68.4033 178.835 67.7793 180.085 67.1554 179.46C66.5314 178.835 71.9857 173.213 71.9857 173.213L66.9941 140.384L60.7546 74.1654C68.2421 64.7949 83.3002 59.271 83.3002 59.271L87.191 52.259L106.645 53.8172L110.047 61.6714Z" fill="#133524"/>
<path d="M116.32 19.2173C117.823 20.3399 118.937 21.9063 119.505 23.696C119.723 20.7713 119.736 17.8349 119.546 14.9082C119.318 12.8517 117.872 12.3891 116.197 11.853C114.685 11.3688 112.975 10.8217 112.515 8.82526C106.435 2.90321 95.8504 3.20183 88.6068 5.26753C84.621 6.40425 82.3275 7.86471 82.1223 8.72025L82.0798 8.89637L81.9179 8.9774C78.8455 10.5155 78.2475 15.3723 78.287 19.1758C78.3619 26.3418 80.8331 34.4806 82.2253 35.1418C82.299 35.1768 82.3176 35.1631 82.3495 35.1364C84.4458 33.4592 87.0033 35.2639 88.1273 36.245C88.7902 31.7912 90.9247 27.6883 94.1898 24.5915C97.455 21.4947 101.662 19.5828 106.14 19.161C107.603 19.0195 109.053 18.7759 110.482 18.4321C111.206 18.2444 111.951 18.1466 112.699 18.1407C113.988 18.1211 115.251 18.4968 116.32 19.2173Z" fill="#2F2E41"/>
<path d="M91.9479 158.156L86.031 155.122C85.714 154.896 85.4888 154.563 85.3966 154.185C85.3044 153.806 85.3513 153.407 85.5287 153.06C85.7062 152.713 86.0023 152.442 86.3631 152.295C86.7239 152.149 87.1252 152.137 87.4938 152.263L93.4106 155.297C93.7276 155.523 93.9528 155.856 94.045 156.234C94.1373 156.613 94.0904 157.012 93.9129 157.359C93.7355 157.706 93.4393 157.977 93.0785 158.124C92.7178 158.27 92.3165 158.282 91.9479 158.156Z" fill="#E2D775"/>
<path d="M72.0345 150.028L62.3011 113.748L88.3113 108.819L86.9126 133.721L121.088 168.952C122.897 168.878 124.689 169.333 126.244 170.261C127.8 171.189 129.052 172.55 129.849 174.178C130.645 175.806 130.951 177.631 130.73 179.43C130.508 181.23 129.768 182.926 128.601 184.311C127.433 185.697 125.888 186.713 124.154 187.234C122.42 187.756 120.571 187.761 118.834 187.249C117.097 186.737 115.546 185.731 114.371 184.352C113.196 182.973 112.446 181.281 112.215 179.483L72.0345 150.028Z" fill="#A0616A"/>
<path d="M59.6395 73.0715C50.8108 80.0499 62.1425 119.084 62.1425 119.084C63.897 117.156 65.9357 145.646 68.0802 144.676C74.175 141.919 85.3459 132.412 89.6525 133.187C92.1154 133.63 89.5351 114.341 89.5351 114.341C89.5351 114.341 89.0605 103.282 88.1685 89.0643C87.9908 85.0402 86.7991 81.1264 84.7042 77.6875C82.6094 74.2485 79.6796 71.3961 76.1875 69.3957C76.1875 69.3957 68.4683 66.0932 59.6395 73.0715Z" fill="#133524"/>
<path d="M365.648 172.994L12.311 172.592C10.3253 168.377 8.56238 164.061 7.02942 159.66L357.264 160.031C360.634 163.95 363.455 168.312 365.648 172.994Z" fill="#3F3D56"/>
<path d="M253.109 266.784C251.283 267.669 249.441 268.523 247.582 269.345C244.492 267.588 241.439 265.751 238.403 263.874L249.662 258.921L253.109 266.784Z" fill="#FFB6B6"/>
<path d="M335.204 205.187C333.374 207.646 331.485 210.055 329.538 212.415C327.744 214.592 325.901 216.727 324.011 218.821C323.23 219.688 322.44 220.551 321.632 221.404C320.145 223 318.625 224.569 317.073 226.111C314.278 226.992 308.617 228.543 302.55 229.991C298.134 231.042 293.505 232.039 289.603 232.673C287.418 233.066 285.209 233.302 282.991 233.38C280.356 233.402 277.682 233.33 274.999 233.187C271.972 233.026 268.941 232.776 265.945 232.454C258.154 231.636 250.609 230.362 244.099 229.053C241.715 228.579 239.474 228.096 237.412 227.627C233.505 226.746 230.237 225.924 227.871 225.298C225.205 224.6 223.687 224.149 223.687 224.149L217.013 235.342L213.548 241.148L211.003 245.417L210.325 246.548C210.039 246.392 209.753 246.231 209.468 246.074C204.956 243.569 200.318 241.296 195.574 239.267C192.458 237.952 189.301 236.768 186.113 235.758H186.109C184.89 235.373 183.667 235.011 182.439 234.68C182.823 233.648 183.211 232.608 183.604 231.56C184.336 229.607 185.083 227.636 185.845 225.646C187.493 221.337 189.198 216.966 190.953 212.616C192.391 209.045 193.855 205.487 195.337 201.978C196.02 200.36 197.409 198.938 199.351 197.691C200.279 197.105 201.247 196.585 202.248 196.136C207.807 193.601 215.995 191.952 225.018 190.892C225.763 190.807 226.514 190.722 227.268 190.642C234.737 189.855 242.662 189.448 250.073 189.261C253.783 189.167 257.364 189.131 260.694 189.127C261.77 189.127 262.817 189.13 263.833 189.136H263.838C266.583 189.149 269.11 189.189 271.334 189.234C271.767 189.243 272.186 189.256 272.597 189.265H272.602C272.878 189.27 273.151 189.279 273.419 189.283C278.28 189.408 281.263 189.56 281.263 189.56L282.419 180.477L282.656 178.644L282.879 176.901V176.897L282.906 176.678L283.089 176.673L286.303 176.611L313.323 176.083L328.083 175.793L325.744 185.832L321.882 202.398C322.275 205.017 335.338 202.966 335.204 205.187Z" fill="#2F2E41"/>
<path d="M256.44 265.13C255.337 265.693 254.225 266.247 253.109 266.784C251.283 267.669 249.441 268.523 247.582 269.345C244.492 267.588 241.439 265.751 238.403 263.874C233.447 260.807 228.54 257.634 223.62 254.536C222.884 254.067 222.152 253.606 221.415 253.15H221.41C219.383 250.138 217.316 247 215.231 243.768C215.2 243.723 215.173 243.678 215.147 243.634C214.611 242.811 214.078 241.983 213.548 241.148C210.213 235.918 206.86 230.465 203.606 224.895L211.847 221.042L227.17 213.881L229.813 212.648L237.411 227.627L244.189 240.987L245.698 243.96L256.44 265.13Z" fill="#2F2E41"/>
<path d="M258.749 193.215L297.814 155.496L308.642 124.801L292.671 117.847C284.467 125.715 275.6 150.221 275.6 150.221L248.717 184.463C248.508 184.535 248.299 184.611 248.092 184.703C246.882 185.237 245.829 186.075 245.036 187.136C244.244 188.197 243.738 189.445 243.567 190.759C243.397 192.073 243.568 193.408 244.064 194.637C244.56 195.865 245.364 196.944 246.398 197.771C247.433 198.597 248.663 199.142 249.969 199.354C251.275 199.565 252.614 199.436 253.856 198.978C255.097 198.52 256.2 197.749 257.057 196.739C257.915 195.73 258.497 194.516 258.749 193.215Z" fill="#FFB8B8"/>
<path d="M288.177 121.275L308.435 127.714L308.512 127.701C316.052 126.436 322.308 114.107 326.229 103.986C327.519 100.648 327.495 96.9436 326.162 93.6224C324.828 90.3012 322.285 87.6108 319.047 86.095C316.65 84.993 313.993 84.5842 311.377 84.9147C308.76 85.2452 306.288 86.302 304.24 87.9655L293.837 96.476L288.177 121.275Z" fill="#E2D775"/>
<path d="M335.123 205.64L335.241 205.483C341.562 197.09 332.917 176.305 331.61 173.291L337.487 171.548L336.463 160.345L335.969 155.349L340.539 151.004L340.554 150.893L343.697 128.502L347.808 113.682C349.358 108.08 349.391 102.165 347.903 96.5458C346.416 90.9264 343.461 85.8046 339.343 81.7062L330.938 73.3505L320.867 57.5685L303.982 57.1321L297.911 67.9311C292.264 69.0849 287.201 72.1853 283.603 76.6923C280.005 81.1994 278.1 86.8274 278.22 92.5959L278.792 121.345L272.733 156.965L272.563 163.435L266.617 169.718L267.716 176.07L263.268 177.844L261.092 186.869C260.26 187.911 254.771 194.857 254.721 196.794C254.714 197.084 254.921 197.371 255.373 197.695C258.926 200.24 278.784 205.755 287.722 202.439C297.242 198.91 334.553 205.538 334.929 205.605L335.123 205.64Z" fill="#E2D775"/>
<path d="M310.95 52.294C323.304 52.294 333.319 42.2669 333.319 29.8978C333.319 17.5286 323.304 7.50146 310.95 7.50146C298.596 7.50146 288.581 17.5286 288.581 29.8978C288.581 42.2669 298.596 52.294 310.95 52.294Z" fill="#FFB8B8"/>
<path d="M308.221 52.5937C311.685 52.6478 315.147 52.4056 318.57 51.8696C321.963 51.1788 329.553 45.6102 331.669 42.2592C333.241 39.7695 334.246 35.8816 334.813 33.0586C335.576 29.323 335.546 25.4685 334.727 21.7448C333.908 18.0212 332.316 14.5113 330.056 11.4425C329.187 10.159 327.988 9.13431 326.586 8.47699C326.461 8.42832 326.333 8.38519 326.204 8.34832C324.16 7.80992 322.324 6.67221 320.931 5.08125C320.66 4.75946 320.368 4.45757 320.054 4.17792C318.479 2.84738 316.612 1.90884 314.606 1.43903C311.367 0.571222 306.68 1.43264 300.676 4.00183C297.659 5.29265 294.359 4.8255 291.821 4.27426C291.679 4.24672 291.532 4.257 291.395 4.30405C291.258 4.3511 291.135 4.4333 291.039 4.54246C289.96 5.55746 288.536 6.12562 287.055 6.13273C286.148 6.17262 285.196 7.43027 284.045 9.07029C283.784 9.44258 283.48 9.87707 283.26 10.1413L283.23 9.63362L282.717 10.2C281.911 11.0902 281.342 12.1703 281.065 13.3397C280.787 14.5092 280.81 15.7299 281.13 16.8882C281.451 18.0465 282.059 19.1047 282.898 19.9644C283.737 20.824 284.78 21.4571 285.929 21.8046C286.842 22.0477 287.777 22.1969 288.72 22.2498C289.291 22.3013 289.881 22.3545 290.448 22.4528C292.265 22.8253 293.954 23.6632 295.351 24.8846C296.748 26.106 297.805 27.6692 298.418 29.4216C298.563 29.8267 298.799 30.193 299.108 30.4922C299.417 30.7914 299.791 31.0155 300.2 31.1473C300.609 31.279 301.043 31.3149 301.468 31.2521C301.893 31.1893 302.298 31.0295 302.652 30.7851C303.242 30.3253 303.934 30.0152 304.669 29.8811C305.404 29.7471 306.161 29.793 306.875 30.0152C307.492 30.3586 307.972 30.9038 308.235 31.5596C308.554 32.2901 309.084 32.9088 309.756 33.3367C312.055 34.5235 312.214 39.7811 311.388 44.164C310.592 48.3887 309.019 51.4449 307.562 51.596C306.44 51.7121 306.312 51.7919 306.231 51.9905L306.158 52.1682L306.284 52.3345C306.904 52.5594 307.564 52.6478 308.221 52.5937Z" fill="#2F2E41"/>
<path d="M293.732 114.503L285.107 97.287C272.588 98.1432 247.74 112.636 247.74 112.636L200.729 122.615C199.336 122.079 197.827 121.92 196.353 122.154C194.88 122.387 193.494 123.005 192.334 123.946C191.175 124.886 190.284 126.116 189.75 127.511C189.216 128.906 189.059 130.417 189.294 131.892C189.529 133.367 190.148 134.755 191.089 135.914C192.03 137.074 193.259 137.964 194.653 138.497C196.047 139.03 197.556 139.185 199.03 138.948C200.503 138.711 201.887 138.09 203.044 137.146L262.846 132.855L293.732 114.503Z" fill="#FFB8B8"/>
<path d="M290.253 117.33L312.779 100.57L316.746 86.2542C317.515 83.4409 317.483 80.4684 316.653 77.6725C315.822 74.8767 314.228 72.3691 312.049 70.433C309.078 67.8284 305.23 66.4506 301.283 66.5781C297.336 66.7056 293.584 68.3289 290.787 71.1198C282.31 79.591 272.642 91.4091 274.719 99.6041L274.74 99.6872L290.253 117.33Z" fill="#E2D775"/>
<path d="M262.368 162.159H202.096V170.205H262.368V162.159Z" fill="white"/>
<path d="M108.34 162.159H48.0679V170.205H108.34V162.159Z" fill="white"/>
<path d="M115.378 123.466V161.776C115.378 162.264 115.572 162.732 115.917 163.077C116.262 163.422 116.729 163.617 117.217 163.617H173.919C174.407 163.617 174.874 163.422 175.219 163.077C175.564 162.732 175.758 162.264 175.758 161.776V123.466C175.757 122.978 175.563 122.511 175.218 122.166C174.874 121.821 174.406 121.627 173.919 121.627H117.217C116.73 121.627 116.263 121.821 115.918 122.166C115.573 122.511 115.379 122.978 115.378 123.466Z" fill="#3F3D56"/>
<path d="M116.708 123.943V161.303C116.709 161.564 116.812 161.814 116.997 161.998C117.181 162.183 117.431 162.287 117.691 162.287H173.447C173.708 162.287 173.958 162.183 174.142 161.998C174.326 161.814 174.43 161.564 174.43 161.303V123.943C174.43 123.681 174.327 123.431 174.142 123.246C173.958 123.061 173.708 122.957 173.447 122.957H117.691C117.43 122.957 117.18 123.061 116.996 123.246C116.812 123.431 116.708 123.681 116.708 123.943Z" fill="#C7C7CC"/>
<path d="M114.192 169.247C114.296 169.377 114.428 169.483 114.578 169.554C114.729 169.626 114.893 169.663 115.06 169.663H175.775C175.941 169.662 176.105 169.625 176.255 169.554C176.404 169.482 176.536 169.378 176.641 169.249C176.746 169.12 176.82 168.969 176.859 168.807C176.898 168.646 176.901 168.477 176.867 168.315L175.924 163.832C175.885 163.65 175.801 163.48 175.68 163.338C175.558 163.196 175.403 163.086 175.229 163.02C175.102 162.97 174.968 162.945 174.832 162.945H115.999C115.863 162.945 115.728 162.97 115.602 163.02C115.428 163.086 115.273 163.196 115.151 163.338C115.03 163.48 114.946 163.65 114.906 163.832L113.964 168.315C113.93 168.477 113.934 168.645 113.973 168.807C114.012 168.968 114.087 169.118 114.192 169.247Z" fill="#2F2E41"/>
<path d="M172.749 164.876H174.183C174.303 164.876 174.401 164.778 174.401 164.657V163.97C174.401 163.85 174.303 163.752 174.183 163.752H172.749C172.629 163.752 172.531 163.85 172.531 163.97V164.657C172.531 164.778 172.629 164.876 172.749 164.876Z" fill="#3F3D56"/>
<path d="M169.009 164.876H170.443C170.563 164.876 170.661 164.778 170.661 164.657V163.97C170.661 163.85 170.563 163.752 170.443 163.752H169.009C168.889 163.752 168.791 163.85 168.791 163.97V164.657C168.791 164.778 168.889 164.876 169.009 164.876Z" fill="#3F3D56"/>
<path d="M165.269 164.876H166.703C166.823 164.876 166.921 164.778 166.921 164.657V163.97C166.921 163.85 166.823 163.752 166.703 163.752H165.269C165.149 163.752 165.051 163.85 165.051 163.97V164.657C165.051 164.778 165.149 164.876 165.269 164.876Z" fill="#3F3D56"/>
<path d="M161.529 164.876H162.963C163.083 164.876 163.181 164.778 163.181 164.657V163.97C163.181 163.85 163.083 163.752 162.963 163.752H161.529C161.409 163.752 161.311 163.85 161.311 163.97V164.657C161.311 164.778 161.409 164.876 161.529 164.876Z" fill="#3F3D56"/>
<path d="M157.789 164.876H159.223C159.343 164.876 159.441 164.778 159.441 164.657V163.97C159.441 163.85 159.343 163.752 159.223 163.752H157.789C157.669 163.752 157.571 163.85 157.571 163.97V164.657C157.571 164.778 157.669 164.876 157.789 164.876Z" fill="#3F3D56"/>
<path d="M154.049 164.876H155.483C155.603 164.876 155.701 164.778 155.701 164.657V163.97C155.701 163.85 155.603 163.752 155.483 163.752H154.049C153.929 163.752 153.831 163.85 153.831 163.97V164.657C153.831 164.778 153.929 164.876 154.049 164.876Z" fill="#3F3D56"/>
<path d="M150.309 164.876H151.743C151.863 164.876 151.961 164.778 151.961 164.657V163.97C151.961 163.85 151.863 163.752 151.743 163.752H150.309C150.189 163.752 150.091 163.85 150.091 163.97V164.657C150.091 164.778 150.189 164.876 150.309 164.876Z" fill="#3F3D56"/>
<path d="M146.569 164.876H148.003C148.123 164.876 148.221 164.778 148.221 164.657V163.97C148.221 163.85 148.123 163.752 148.003 163.752H146.569C146.449 163.752 146.351 163.85 146.351 163.97V164.657C146.351 164.778 146.449 164.876 146.569 164.876Z" fill="#3F3D56"/>
<path d="M142.829 164.876H144.263C144.383 164.876 144.481 164.778 144.481 164.657V163.97C144.481 163.85 144.383 163.752 144.263 163.752H142.829C142.709 163.752 142.611 163.85 142.611 163.97V164.657C142.611 164.778 142.709 164.876 142.829 164.876Z" fill="#3F3D56"/>
<path d="M139.089 164.876H140.523C140.644 164.876 140.741 164.778 140.741 164.657V163.97C140.741 163.85 140.644 163.752 140.523 163.752H139.089C138.969 163.752 138.871 163.85 138.871 163.97V164.657C138.871 164.778 138.969 164.876 139.089 164.876Z" fill="#3F3D56"/>
<path d="M135.349 164.876H136.783C136.904 164.876 137.001 164.778 137.001 164.657V163.97C137.001 163.85 136.904 163.752 136.783 163.752H135.349C135.229 163.752 135.131 163.85 135.131 163.97V164.657C135.131 164.778 135.229 164.876 135.349 164.876Z" fill="#3F3D56"/>
<path d="M131.609 164.876H133.043C133.164 164.876 133.261 164.778 133.261 164.657V163.97C133.261 163.85 133.164 163.752 133.043 163.752H131.609C131.489 163.752 131.391 163.85 131.391 163.97V164.657C131.391 164.778 131.489 164.876 131.609 164.876Z" fill="#3F3D56"/>
<path d="M127.869 164.876H129.303C129.424 164.876 129.521 164.778 129.521 164.657V163.97C129.521 163.85 129.424 163.752 129.303 163.752H127.869C127.749 163.752 127.651 163.85 127.651 163.97V164.657C127.651 164.778 127.749 164.876 127.869 164.876Z" fill="#3F3D56"/>
<path d="M124.129 164.876H125.563C125.684 164.876 125.781 164.778 125.781 164.657V163.97C125.781 163.85 125.684 163.752 125.563 163.752H124.129C124.009 163.752 123.911 163.85 123.911 163.97V164.657C123.911 164.778 124.009 164.876 124.129 164.876Z" fill="#3F3D56"/>
<path d="M120.389 164.876H121.823C121.944 164.876 122.041 164.778 122.041 164.657V163.97C122.041 163.85 121.944 163.752 121.823 163.752H120.389C120.269 163.752 120.171 163.85 120.171 163.97V164.657C120.171 164.778 120.269 164.876 120.389 164.876Z" fill="#3F3D56"/>
<path d="M116.649 164.876H118.083C118.204 164.876 118.301 164.778 118.301 164.657V163.97C118.301 163.85 118.204 163.752 118.083 163.752H116.649C116.529 163.752 116.431 163.85 116.431 163.97V164.657C116.431 164.778 116.529 164.876 116.649 164.876Z" fill="#3F3D56"/>
<path d="M172.793 166.748H174.227C174.348 166.748 174.445 166.65 174.445 166.53V165.843C174.445 165.722 174.348 165.624 174.227 165.624H172.793C172.673 165.624 172.575 165.722 172.575 165.843V166.53C172.575 166.65 172.673 166.748 172.793 166.748Z" fill="#3F3D56"/>
<path d="M169.053 166.748H170.487C170.608 166.748 170.705 166.65 170.705 166.53V165.843C170.705 165.722 170.608 165.624 170.487 165.624H169.053C168.933 165.624 168.835 165.722 168.835 165.843V166.53C168.835 166.65 168.933 166.748 169.053 166.748Z" fill="#3F3D56"/>
<path d="M165.313 166.748H166.747C166.868 166.748 166.965 166.65 166.965 166.53V165.843C166.965 165.722 166.868 165.624 166.747 165.624H165.313C165.193 165.624 165.095 165.722 165.095 165.843V166.53C165.095 166.65 165.193 166.748 165.313 166.748Z" fill="#3F3D56"/>
<path d="M161.573 166.748H163.007C163.128 166.748 163.225 166.65 163.225 166.53V165.843C163.225 165.722 163.128 165.624 163.007 165.624H161.573C161.453 165.624 161.355 165.722 161.355 165.843V166.53C161.355 166.65 161.453 166.748 161.573 166.748Z" fill="#3F3D56"/>
<path d="M157.833 166.748H159.267C159.388 166.748 159.485 166.65 159.485 166.53V165.843C159.485 165.722 159.388 165.624 159.267 165.624H157.833C157.713 165.624 157.615 165.722 157.615 165.843V166.53C157.615 166.65 157.713 166.748 157.833 166.748Z" fill="#3F3D56"/>
<path d="M154.093 166.748H155.527C155.648 166.748 155.745 166.65 155.745 166.53V165.843C155.745 165.722 155.648 165.624 155.527 165.624H154.093C153.973 165.624 153.875 165.722 153.875 165.843V166.53C153.875 166.65 153.973 166.748 154.093 166.748Z" fill="#3F3D56"/>
<path d="M150.353 166.748H151.787C151.908 166.748 152.005 166.65 152.005 166.53V165.843C152.005 165.722 151.908 165.624 151.787 165.624H150.353C150.233 165.624 150.135 165.722 150.135 165.843V166.53C150.135 166.65 150.233 166.748 150.353 166.748Z" fill="#3F3D56"/>
<path d="M146.613 166.748H148.047C148.168 166.748 148.265 166.65 148.265 166.53V165.843C148.265 165.722 148.168 165.624 148.047 165.624H146.613C146.493 165.624 146.395 165.722 146.395 165.843V166.53C146.395 166.65 146.493 166.748 146.613 166.748Z" fill="#3F3D56"/>
<path d="M142.873 166.748H144.307C144.428 166.748 144.525 166.65 144.525 166.53V165.843C144.525 165.722 144.428 165.624 144.307 165.624H142.873C142.753 165.624 142.655 165.722 142.655 165.843V166.53C142.655 166.65 142.753 166.748 142.873 166.748Z" fill="#3F3D56"/>
<path d="M139.133 166.748H140.567C140.688 166.748 140.785 166.65 140.785 166.53V165.843C140.785 165.722 140.688 165.624 140.567 165.624H139.133C139.013 165.624 138.915 165.722 138.915 165.843V166.53C138.915 166.65 139.013 166.748 139.133 166.748Z" fill="#3F3D56"/>
<path d="M135.393 166.748H136.827C136.948 166.748 137.045 166.65 137.045 166.53V165.843C137.045 165.722 136.948 165.624 136.827 165.624H135.393C135.273 165.624 135.175 165.722 135.175 165.843V166.53C135.175 166.65 135.273 166.748 135.393 166.748Z" fill="#3F3D56"/>
<path d="M131.653 166.748H133.087C133.208 166.748 133.305 166.65 133.305 166.53V165.843C133.305 165.722 133.208 165.624 133.087 165.624H131.653C131.533 165.624 131.435 165.722 131.435 165.843V166.53C131.435 166.65 131.533 166.748 131.653 166.748Z" fill="#3F3D56"/>
<path d="M127.913 166.748H129.347C129.468 166.748 129.565 166.65 129.565 166.53V165.843C129.565 165.722 129.468 165.624 129.347 165.624H127.913C127.793 165.624 127.695 165.722 127.695 165.843V166.53C127.695 166.65 127.793 166.748 127.913 166.748Z" fill="#3F3D56"/>
<path d="M124.173 166.748H125.607C125.728 166.748 125.825 166.65 125.825 166.53V165.843C125.825 165.722 125.728 165.624 125.607 165.624H124.173C124.053 165.624 123.955 165.722 123.955 165.843V166.53C123.955 166.65 124.053 166.748 124.173 166.748Z" fill="#3F3D56"/>
<path d="M120.433 166.748H121.867C121.988 166.748 122.085 166.65 122.085 166.53V165.843C122.085 165.722 121.988 165.624 121.867 165.624H120.433C120.313 165.624 120.215 165.722 120.215 165.843V166.53C120.215 166.65 120.313 166.748 120.433 166.748Z" fill="#3F3D56"/>
<path d="M116.693 166.748H118.128C118.248 166.748 118.345 166.65 118.345 166.53V165.843C118.345 165.722 118.248 165.624 118.128 165.624H116.693C116.573 165.624 116.475 165.722 116.475 165.843V166.53C116.475 166.65 116.573 166.748 116.693 166.748Z" fill="#3F3D56"/>
<path d="M141.751 168.995H156.275C156.396 168.995 156.493 168.897 156.493 168.776V168.089C156.493 167.969 156.396 167.871 156.275 167.871H141.751C141.631 167.871 141.533 167.969 141.533 168.089V168.776C141.533 168.897 141.631 168.995 141.751 168.995Z" fill="#3F3D56"/>
</g>
<defs>
<clipPath id="clip0_13_298">
<rect width="372" height="283" fill="white"/>
</clipPath>
</defs>
</svg>
